<svg width="36" height="36" viewBox="0 0 36 36" fill="none" xmlns="http://www.w3.org/2000/svg">
<path d="M18 12V18L21.75 21.75" stroke="#0B74B0" stroke-width="2.25" stroke-linecap="round" stroke-linejoin="round"/>
<path d="M6.50678 10.3059L5.38179 10.3116C5.38488 10.9285 5.88422 11.4278 6.50112 11.4309L6.50678 10.3059ZM10.3194 11.4501C10.9408 11.4532 11.447 10.9521 11.4501 10.3308C11.4532 9.70944 10.9521 9.20323 10.3308 9.20011L10.3194 11.4501ZM7.61257 6.48194C7.60944 5.86062 7.10325 5.35947 6.48194 5.36259C5.86062 5.36572 5.35947 5.87193 5.3626 6.49323L7.61257 6.48194ZM5.625 18C5.625 17.3787 5.12131 16.875 4.5 16.875C3.87869 16.875 3.375 17.3787 3.375 18H5.625ZM25.3132 30.6678C25.8511 30.3567 26.0349 29.6685 25.7238 29.1306C25.4127 28.5929 24.7245 28.4089 24.1868 28.7202L25.3132 30.6678ZM28.7202 24.1868C28.4089 24.7245 28.5929 25.4127 29.1306 25.7238C29.6685 26.0349 30.3567 25.8511 30.6678 25.3132L28.7202 24.1868ZM7.71049 7.60689C7.26897 8.04403 7.26541 8.75634 7.70257 9.19786C8.13972 9.63939 8.85201 9.64293 9.29354 9.20578L7.71049 7.60689ZM28.2935 7.70679C22.5632 1.97649 13.3032 1.91847 7.61085 7.61085L9.20184 9.20184C14.0005 4.40318 21.8358 4.43106 26.7026 9.29778L28.2935 7.70679ZM7.61085 7.61085L5.71128 9.51042L7.30227 11.1014L9.20184 9.20184L7.61085 7.61085ZM6.50112 11.4309L10.3194 11.4501L10.3308 9.20011L6.51243 9.18093L6.50112 11.4309ZM7.63176 10.3003L7.61257 6.48194L5.3626 6.49323L5.38179 10.3116L7.63176 10.3003ZM18 5.625C24.8345 5.625 30.375 11.1655 30.375 18H32.625C32.625 9.92283 26.0772 3.375 18 3.375V5.625ZM18 30.375C11.1655 30.375 5.625 24.8345 5.625 18H3.375C3.375 26.0772 9.92283 32.625 18 32.625V30.375ZM24.1868 28.7202C22.3677 29.7724 20.2559 30.375 18 30.375V32.625C20.6621 32.625 23.161 31.9128 25.3132 30.6678L24.1868 28.7202ZM30.375 18C30.375 20.2559 29.7724 22.3677 28.7202 24.1868L30.6678 25.3132C31.9128 23.161 32.625 20.6621 32.625 18H30.375ZM9.29354 9.20578C11.5306 6.99088 14.6047 5.625 18 5.625V3.375C13.9881 3.375 10.3517 4.99186 7.71049 7.60689L9.29354 9.20578Z" fill="#0B74B0"/>
</svg>
